<svg width="45" height="45" viewBox="0 0 45 45" fill="none" xmlns="http://www.w3.org/2000/svg">
<path d="M13.05 0H31.95C39.15 0 45 5.85 45 13.05V31.95C45 35.4111 43.6251 38.7304 41.1777 41.1777C38.7304 43.6251 35.4111 45 31.95 45H13.05C5.85 45 0 39.15 0 31.95V13.05C0 9.58893 1.37491 6.26961 3.82226 3.82226C6.26961 1.37491 9.58893 0 13.05 0ZM12.6 4.5C10.4517 4.5 8.39148 5.35339 6.87244 6.87244C5.35339 8.39148 4.5 10.4517 4.5 12.6V32.4C4.5 36.8775 8.1225 40.5 12.6 40.5H32.4C34.5483 40.5 36.6085 39.6466 38.1276 38.1276C39.6466 36.6085 40.5 34.5483 40.5 32.4V12.6C40.5 8.1225 36.8775 4.5 32.4 4.5H12.6ZM34.3125 7.875C35.0584 7.875 35.7738 8.17132 36.3012 8.69876C36.8287 9.22621 37.125 9.94158 37.125 10.6875C37.125 11.4334 36.8287 12.1488 36.3012 12.6762C35.7738 13.2037 35.0584 13.5 34.3125 13.5C33.5666 13.5 32.8512 13.2037 32.3238 12.6762C31.7963 12.1488 31.5 11.4334 31.5 10.6875C31.5 9.94158 31.7963 9.22621 32.3238 8.69876C32.8512 8.17132 33.5666 7.875 34.3125 7.875ZM22.5 11.25C25.4837 11.25 28.3452 12.4353 30.455 14.545C32.5647 16.6548 33.75 19.5163 33.75 22.5C33.75 25.4837 32.5647 28.3452 30.455 30.455C28.3452 32.5647 25.4837 33.75 22.5 33.75C19.5163 33.75 16.6548 32.5647 14.545 30.455C12.4353 28.3452 11.25 25.4837 11.25 22.5C11.25 19.5163 12.4353 16.6548 14.545 14.545C16.6548 12.4353 19.5163 11.25 22.5 11.25ZM22.5 15.75C20.7098 15.75 18.9929 16.4612 17.727 17.727C16.4612 18.9929 15.75 20.7098 15.75 22.5C15.75 24.2902 16.4612 26.0071 17.727 27.273C18.9929 28.5388 20.7098 29.25 22.5 29.25C24.2902 29.25 26.0071 28.5388 27.273 27.273C28.5388 26.0071 29.25 24.2902 29.25 22.5C29.25 20.7098 28.5388 18.9929 27.273 17.727C26.0071 16.4612 24.2902 15.75 22.5 15.75Z" fill="#E07C49"/>
</svg>
