<svg width="46" height="45" viewBox="0 0 46 45" fill="none" xmlns="http://www.w3.org/2000/svg">
<path d="M29.9142 0H16.1105C3.497 0 0.5 2.99925 0.5 15.5858V29.3917C0.5 42.0007 3.47675 45 16.0858 45H29.8917C42.5007 45 45.5 42.0233 45.5 29.4142V15.6105C45.5 2.997 42.5233 0 29.9142 0ZM36.8285 32.1075H33.5458C32.3038 32.1075 31.9303 31.1018 29.7028 28.8743C27.7588 27 26.9375 26.766 26.4448 26.766C25.7653 26.766 25.5785 26.9527 25.5785 27.891V30.843C25.5785 31.6418 25.3198 32.1097 23.234 32.1097C21.2098 31.9737 19.2468 31.3587 17.5068 30.3154C15.7669 29.2722 14.2996 27.8304 13.226 26.109C10.6771 22.9365 8.90362 19.213 8.0465 15.2347C8.0465 14.742 8.23325 14.2965 9.1715 14.2965H12.4543C13.298 14.2965 13.6017 14.6723 13.9302 15.5385C15.5232 20.2275 18.2412 24.3045 19.3438 24.3045C19.7667 24.3045 19.9513 24.1178 19.9513 23.0625V18.234C19.8118 16.0313 18.6417 15.8445 18.6417 15.048C18.6568 14.8379 18.7531 14.6419 18.9101 14.5017C19.0672 14.3614 19.2728 14.2878 19.4833 14.2965H24.6403C25.3445 14.2965 25.5785 14.6475 25.5785 15.4913V22.0073C25.5785 22.7115 25.8823 22.9455 26.0938 22.9455C26.5167 22.9455 26.843 22.7115 27.617 21.9375C29.2794 19.9101 30.6377 17.6514 31.649 15.2325C31.7524 14.9419 31.948 14.6932 32.2059 14.5242C32.4639 14.3552 32.7701 14.2752 33.0778 14.2965H36.3605C37.3437 14.2965 37.553 14.7893 37.3438 15.4913C36.1501 18.1652 34.6732 20.7035 32.9382 23.0625C32.585 23.6025 32.4432 23.8837 32.9382 24.516C33.2645 25.0087 34.4142 25.9695 35.1882 26.883C36.313 28.0049 37.2471 29.303 37.9535 30.726C38.2347 31.6395 37.7645 32.1075 36.8285 32.1075Z" fill="#E07C49"/>
</svg>
